# xmcd
#
# Track frame offsets: 
#        150
#        18862
#        31865
#        50620
#        61922
#        80027
#        97562
#        114467
#        132002
#        147952
#        175175
#        184785
#
# Disc length: 2692 seconds
#
# Revision: 6
# Processed by: cddbd v1.5.2PL0 Copyright (c) Steve Scherf et al.
# Submitted via: ExactAudioCopy v0.99pb5
#
DISCID=910a820c
DTITLE=De Bläck Fööss - Links eröm - Rächs eröm
DYEAR=1977
DGENRE=Pop
TTITLE0=Rita schnell
TTITLE1=Müller's Plaat
TTITLE2=Loss mer jet schunkele
TTITLE3=Volksjade
TTITLE4=Et Südstadt-Leed
TTITLE5=Sirtaki
TTITLE6=Rollbrett
TTITLE7=Lange Samstag en d'r City
TTITLE8=En minger Bud
TTITLE9=Buuredanz
TTITLE10=Engelbät
TTITLE11=En de Weetschaff op d'r Eck
EXTD=
EXTT0=
EXTT1=
EXTT2=
EXTT3=
EXTT4=
EXTT5=
EXTT6=
EXTT7=
EXTT8=
EXTT9=
EXTT10=
EXTT11=
PLAYORDER=
